<?xml version="1.0" encoding="iso-8859-1"?>
<!-- Uploaded to: SVG Repo, www.svgrepo.com, Generator: SVG Repo Mixer Tools -->
<svg fill="#000000" height="800px" width="800px" version="1.1" id="Layer_1" xmlns="http://www.w3.org/2000/svg" xmlns:xlink="http://www.w3.org/1999/xlink" 
	 viewBox="0 0 197.654 197.654" xml:space="preserve">
<g>
	<g>
		<g>
			<path d="M38.807,147.588c-6.811,0-12.352,5.541-12.352,12.352c0,6.811,5.541,12.352,12.352,12.352
				c6.811,0,12.352-5.541,12.352-12.352C51.159,153.129,45.619,147.588,38.807,147.588z M38.807,164.057
				c-2.27,0-4.117-1.845-4.117-4.117c0-2.272,1.847-4.117,4.117-4.117c2.27,0,4.117,1.845,4.117,4.117
				C42.924,162.212,41.077,164.057,38.807,164.057z"/>
			<path d="M173.144,76.994c-17.959-20.285-24.378-37.832-18.562-50.747c5.661-12.573,21.658-18.013,28.57-18.013
				c2.274,0,4.117-1.842,4.117-4.117S185.426,0,183.152,0c-10.398,0-29.054,7.265-36.079,22.866
				c-5.052,11.218-5.7,30.663,19.907,59.589c16.487,18.624,23.327,33.719,19.782,43.654c-3.29,9.218-14.965,11.925-17.011,12.335
				c-7.14-16.349-23.859-31.37-61.23-31.37c-11.461,0-24.435,2.396-37.733,6.956c-5.14-10.88-15.028-17.197-24.67-15.319
				c-6.112,1.186-11.174,5.388-14.252,11.837c-2.881,6.031-3.681,13.393-2.256,20.727c0.205,1.057,0.456,2.111,0.752,3.144
				C12.387,146.835,1.75,159.995,1.75,169.951c0,24.346,43.002,27.703,89.471,27.703c44.782,0,83.456,0,83.456-33.706
				c0-5.262-0.531-11.406-2.199-17.673c4.753-1.121,17.65-5.21,22.018-17.34C199.223,115.811,192.038,98.337,173.144,76.994z
				 M91.223,189.42c-34.874,0-81.236-2.019-81.236-19.469c0-6.087,8.516-17.86,27.539-30.433l2.76-1.826l-1.188-3.088
				c-0.603-1.568-1.075-3.216-1.401-4.898c-1.091-5.617-0.523-11.162,1.602-15.609c1.926-4.033,4.905-6.631,8.391-7.306
				c0.595-0.117,1.194-0.173,1.797-0.173c6.029,0,12.275,5.641,15.064,13.932l1.355,4.025l3.983-1.48
				c13.701-5.094,27.06-7.788,38.634-7.788c47.874,0.001,57.921,26.45,57.921,48.64C166.444,188.238,139.263,189.42,91.223,189.42z"
				/>
		</g>
	</g>
</g>
</svg>