<svg width="800" height="800" viewBox="0 0 800 800" fill="none" xmlns="http://www.w3.org/2000/svg">
<g clip-path="url(#clip0_0_1)">
<path d="M157.07 597.359C129.503 597.359 107.076 619.786 107.076 647.353C107.076 674.921 129.503 697.348 157.07 697.348C184.638 697.348 207.065 674.921 207.065 647.353C207.065 619.786 184.642 597.359 157.07 597.359ZM157.07 664.017C147.883 664.017 140.407 656.549 140.407 647.353C140.407 638.158 147.883 630.69 157.07 630.69C166.258 630.69 173.734 638.158 173.734 647.353C173.734 656.549 166.258 664.017 157.07 664.017Z" fill="#222222"/>
<path d="M700.796 311.631C628.108 229.528 602.127 158.507 625.667 106.234C648.58 55.3452 713.327 33.3269 741.303 33.3269C750.507 33.3269 757.967 25.8715 757.967 16.6635C757.967 7.45545 750.507 0 741.303 0C699.218 0 623.708 29.4049 595.275 92.5496C574.827 137.954 572.204 216.657 675.848 333.735C742.578 409.115 770.263 470.212 755.915 510.423C742.599 547.733 695.344 558.689 687.063 560.349C658.164 494.177 590.495 433.38 439.236 433.38C392.848 433.38 340.336 443.077 286.513 461.534C265.709 417.497 225.687 391.929 186.662 399.53C161.923 404.331 141.435 421.338 128.977 447.44C117.316 471.851 114.078 501.648 119.846 531.332C120.676 535.611 121.691 539.877 122.89 544.058C50.1361 594.311 7.0831 647.576 7.0831 687.873C7.0831 786.413 181.133 800 369.215 800C550.469 800 707.001 800 707.001 663.576C707.001 642.278 704.852 617.41 698.101 592.045C717.338 587.507 769.539 570.957 787.218 521.861C806.35 468.742 777.269 398.017 700.796 311.631ZM369.223 766.673C228.071 766.673 40.4222 758.501 40.4222 687.873C40.4222 663.236 74.8905 615.585 151.886 564.696L163.057 557.305L158.248 544.807C155.808 538.46 153.897 531.79 152.578 524.982C148.162 502.247 150.461 479.804 159.062 461.805C166.857 445.481 178.915 434.966 193.024 432.234C195.432 431.761 197.857 431.534 200.298 431.534C224.7 431.534 249.98 454.366 261.269 487.923L266.753 504.214L282.874 498.224C338.329 477.606 392.399 466.702 439.244 466.702C633.013 466.706 673.678 573.758 673.678 663.572C673.678 761.889 563.664 766.673 369.223 766.673Z" fill="#222222"/>
</g>
<path d="M15.0909 30.9091L42.7273 109.273H43.8182L71.4545 30.9091H83.2727L49.0909 124H37.4545L3.27273 30.9091H15.0909ZM118.182 125.455C111.879 125.455 106.348 123.955 101.591 120.955C96.8636 117.955 93.1667 113.758 90.5 108.364C87.8636 102.97 86.5455 96.6667 86.5455 89.4545C86.5455 82.1818 87.8636 75.8333 90.5 70.4091C93.1667 64.9848 96.8636 60.7727 101.591 57.7727C106.348 54.7727 111.879 53.2727 118.182 53.2727C124.485 53.2727 130 54.7727 134.727 57.7727C139.485 60.7727 143.182 64.9848 145.818 70.4091C148.485 75.8333 149.818 82.1818 149.818 89.4545C149.818 96.6667 148.485 102.97 145.818 108.364C143.182 113.758 139.485 117.955 134.727 120.955C130 123.955 124.485 125.455 118.182 125.455ZM118.182 115.818C122.97 115.818 126.909 114.591 130 112.136C133.091 109.682 135.379 106.455 136.864 102.455C138.348 98.4545 139.091 94.1212 139.091 89.4545C139.091 84.7879 138.348 80.4394 136.864 76.4091C135.379 72.3788 133.091 69.1212 130 66.6364C126.909 64.1515 122.97 62.9091 118.182 62.9091C113.394 62.9091 109.455 64.1515 106.364 66.6364C103.273 69.1212 100.985 72.3788 99.5 76.4091C98.0152 80.4394 97.2727 84.7879 97.2727 89.4545C97.2727 94.1212 98.0152 98.4545 99.5 102.455C100.985 106.455 103.273 109.682 106.364 112.136C109.455 114.591 113.394 115.818 118.182 115.818ZM176.92 30.9091V124H166.193V30.9091H176.92ZM225.841 125.455C219.114 125.455 213.311 123.97 208.432 121C203.583 118 199.841 113.818 197.205 108.455C194.598 103.061 193.295 96.7879 193.295 89.6364C193.295 82.4848 194.598 76.1818 197.205 70.7273C199.841 65.2424 203.508 60.9697 208.205 57.9091C212.932 54.8182 218.447 53.2727 224.75 53.2727C228.386 53.2727 231.977 53.8788 235.523 55.0909C239.068 56.303 242.295 58.2727 245.205 61C248.114 63.697 250.432 67.2727 252.159 71.7273C253.886 76.1818 254.75 81.6667 254.75 88.1818V92.7273H200.932V83.4545H243.841C243.841 79.5151 243.053 76 241.477 72.9091C239.932 69.8182 237.72 67.3788 234.841 65.5909C231.992 63.803 228.629 62.9091 224.75 62.9091C220.477 62.9091 216.78 63.9697 213.659 66.0909C210.568 68.1818 208.189 70.9091 206.523 74.2727C204.856 77.6364 204.023 81.2424 204.023 85.0909V91.2727C204.023 96.5455 204.932 101.015 206.75 104.682C208.598 108.318 211.159 111.091 214.432 113C217.705 114.879 221.508 115.818 225.841 115.818C228.659 115.818 231.205 115.424 233.477 114.636C235.78 113.818 237.765 112.606 239.432 111C241.098 109.364 242.386 107.333 243.295 104.909L253.659 107.818C252.568 111.333 250.735 114.424 248.159 117.091C245.583 119.727 242.402 121.788 238.614 123.273C234.826 124.727 230.568 125.455 225.841 125.455Z" fill="#222222"/>
<path d="M11.2727 141.909H24.7273L56.3636 219.182H57.4545L89.0909 141.909H102.545V235H92V164.273H91.0909L62 235H51.8182L22.7273 164.273H21.8182V235H11.2727V141.909ZM144.239 236.636C139.814 236.636 135.799 235.803 132.193 234.136C128.587 232.439 125.723 230 123.602 226.818C121.481 223.606 120.42 219.727 120.42 215.182C120.42 211.182 121.208 207.939 122.784 205.455C124.36 202.939 126.466 200.97 129.102 199.545C131.739 198.121 134.648 197.061 137.83 196.364C141.042 195.636 144.269 195.061 147.511 194.636C151.754 194.091 155.193 193.682 157.83 193.409C160.496 193.106 162.436 192.606 163.648 191.909C164.89 191.212 165.511 190 165.511 188.273V187.909C165.511 183.424 164.284 179.939 161.83 177.455C159.405 174.97 155.723 173.727 150.784 173.727C145.663 173.727 141.648 174.848 138.739 177.091C135.83 179.333 133.784 181.727 132.602 184.273L122.42 180.636C124.239 176.394 126.663 173.091 129.693 170.727C132.754 168.333 136.087 166.667 139.693 165.727C143.33 164.758 146.905 164.273 150.42 164.273C152.663 164.273 155.239 164.545 158.148 165.091C161.087 165.606 163.92 166.682 166.648 168.318C169.405 169.955 171.693 172.424 173.511 175.727C175.33 179.03 176.239 183.455 176.239 189V235H165.511V225.545H164.966C164.239 227.061 163.027 228.682 161.33 230.409C159.633 232.136 157.375 233.606 154.557 234.818C151.739 236.03 148.299 236.636 144.239 236.636ZM145.875 227C150.117 227 153.693 226.167 156.602 224.5C159.542 222.833 161.754 220.682 163.239 218.045C164.754 215.409 165.511 212.636 165.511 209.727V199.909C165.057 200.455 164.057 200.955 162.511 201.409C160.996 201.833 159.239 202.212 157.239 202.545C155.269 202.848 153.345 203.121 151.466 203.364C149.617 203.576 148.117 203.758 146.966 203.909C144.178 204.273 141.572 204.864 139.148 205.682C136.754 206.47 134.814 207.667 133.33 209.273C131.875 210.848 131.148 213 131.148 215.727C131.148 219.455 132.527 222.273 135.284 224.182C138.072 226.061 141.602 227 145.875 227ZM224.182 236.455C217.636 236.455 212 234.909 207.273 231.818C202.545 228.727 198.909 224.47 196.364 219.045C193.818 213.621 192.545 207.424 192.545 200.455C192.545 193.364 193.848 187.106 196.455 181.682C199.091 176.227 202.758 171.97 207.455 168.909C212.182 165.818 217.697 164.273 224 164.273C228.909 164.273 233.333 165.182 237.273 167C241.212 168.818 244.439 171.364 246.955 174.636C249.47 177.909 251.03 181.727 251.636 186.091H240.909C240.091 182.909 238.273 180.091 235.455 177.636C232.667 175.152 228.909 173.909 224.182 173.909C220 173.909 216.333 175 213.182 177.182C210.061 179.333 207.621 182.379 205.864 186.318C204.136 190.227 203.273 194.818 203.273 200.091C203.273 205.485 204.121 210.182 205.818 214.182C207.545 218.182 209.97 221.288 213.091 223.5C216.242 225.712 219.939 226.818 224.182 226.818C226.97 226.818 229.5 226.333 231.773 225.364C234.045 224.394 235.97 223 237.545 221.182C239.121 219.364 240.242 217.182 240.909 214.636H251.636C251.03 218.758 249.53 222.47 247.136 225.773C244.773 229.045 241.636 231.652 237.727 233.591C233.848 235.5 229.333 236.455 224.182 236.455ZM278.045 193V235H267.318V141.909H278.045V176.091H278.955C280.591 172.485 283.045 169.621 286.318 167.5C289.621 165.348 294.015 164.273 299.5 164.273C304.258 164.273 308.424 165.227 312 167.136C315.576 169.015 318.348 171.909 320.318 175.818C322.318 179.697 323.318 184.636 323.318 190.636V235H312.591V191.364C312.591 185.818 311.152 181.53 308.273 178.5C305.424 175.439 301.47 173.909 296.409 173.909C292.894 173.909 289.742 174.652 286.955 176.136C284.197 177.621 282.015 179.788 280.409 182.636C278.833 185.485 278.045 188.939 278.045 193ZM342.943 235V165.182H353.67V235H342.943ZM348.398 153.545C346.307 153.545 344.504 152.833 342.989 151.409C341.504 149.985 340.761 148.273 340.761 146.273C340.761 144.273 341.504 142.561 342.989 141.136C344.504 139.712 346.307 139 348.398 139C350.489 139 352.277 139.712 353.761 141.136C355.277 142.561 356.034 144.273 356.034 146.273C356.034 148.273 355.277 149.985 353.761 151.409C352.277 152.833 350.489 153.545 348.398 153.545ZM384.045 193V235H373.318V165.182H383.682V176.091H384.591C386.227 172.545 388.712 169.697 392.045 167.545C395.379 165.364 399.682 164.273 404.955 164.273C409.682 164.273 413.818 165.242 417.364 167.182C420.909 169.091 423.667 172 425.636 175.909C427.606 179.788 428.591 184.697 428.591 190.636V235H417.864V191.364C417.864 185.879 416.439 181.606 413.591 178.545C410.742 175.455 406.833 173.909 401.864 173.909C398.439 173.909 395.379 174.652 392.682 176.136C390.015 177.621 387.909 179.788 386.364 182.636C384.818 185.485 384.045 188.939 384.045 193ZM477.466 236.455C470.739 236.455 464.936 234.97 460.057 232C455.208 229 451.466 224.818 448.83 219.455C446.223 214.061 444.92 207.788 444.92 200.636C444.92 193.485 446.223 187.182 448.83 181.727C451.466 176.242 455.133 171.97 459.83 168.909C464.557 165.818 470.072 164.273 476.375 164.273C480.011 164.273 483.602 164.879 487.148 166.091C490.693 167.303 493.92 169.273 496.83 172C499.739 174.697 502.057 178.273 503.784 182.727C505.511 187.182 506.375 192.667 506.375 199.182V203.727H452.557V194.455H495.466C495.466 190.515 494.678 187 493.102 183.909C491.557 180.818 489.345 178.379 486.466 176.591C483.617 174.803 480.254 173.909 476.375 173.909C472.102 173.909 468.405 174.97 465.284 177.091C462.193 179.182 459.814 181.909 458.148 185.273C456.481 188.636 455.648 192.242 455.648 196.091V202.273C455.648 207.545 456.557 212.015 458.375 215.682C460.223 219.318 462.784 222.091 466.057 224C469.33 225.879 473.133 226.818 477.466 226.818C480.284 226.818 482.83 226.424 485.102 225.636C487.405 224.818 489.39 223.606 491.057 222C492.723 220.364 494.011 218.333 494.92 215.909L505.284 218.818C504.193 222.333 502.36 225.424 499.784 228.091C497.208 230.727 494.027 232.788 490.239 234.273C486.451 235.727 482.193 236.455 477.466 236.455Z" fill="black"/>
<path d="M11.2727 346V252.909H22.5455V336H65.8182V346H11.2727ZM102.364 347.636C97.9394 347.636 93.9242 346.803 90.3182 345.136C86.7121 343.439 83.8485 341 81.7273 337.818C79.6061 334.606 78.5455 330.727 78.5455 326.182C78.5455 322.182 79.3333 318.939 80.9091 316.455C82.4848 313.939 84.5909 311.97 87.2273 310.545C89.8636 309.121 92.7727 308.061 95.9545 307.364C99.1667 306.636 102.394 306.061 105.636 305.636C109.879 305.091 113.318 304.682 115.955 304.409C118.621 304.106 120.561 303.606 121.773 302.909C123.015 302.212 123.636 301 123.636 299.273V298.909C123.636 294.424 122.409 290.939 119.955 288.455C117.53 285.97 113.848 284.727 108.909 284.727C103.788 284.727 99.7727 285.848 96.8636 288.091C93.9545 290.333 91.9091 292.727 90.7273 295.273L80.5455 291.636C82.3636 287.394 84.7879 284.091 87.8182 281.727C90.8788 279.333 94.2121 277.667 97.8182 276.727C101.455 275.758 105.03 275.273 108.545 275.273C110.788 275.273 113.364 275.545 116.273 276.091C119.212 276.606 122.045 277.682 124.773 279.318C127.53 280.955 129.818 283.424 131.636 286.727C133.455 290.03 134.364 294.455 134.364 300V346H123.636V336.545H123.091C122.364 338.061 121.152 339.682 119.455 341.409C117.758 343.136 115.5 344.606 112.682 345.818C109.864 347.03 106.424 347.636 102.364 347.636ZM104 338C108.242 338 111.818 337.167 114.727 335.5C117.667 333.833 119.879 331.682 121.364 329.045C122.879 326.409 123.636 323.636 123.636 320.727V310.909C123.182 311.455 122.182 311.955 120.636 312.409C119.121 312.833 117.364 313.212 115.364 313.545C113.394 313.848 111.47 314.121 109.591 314.364C107.742 314.576 106.242 314.758 105.091 314.909C102.303 315.273 99.697 315.864 97.2727 316.682C94.8788 317.47 92.9394 318.667 91.4545 320.273C90 321.848 89.2727 324 89.2727 326.727C89.2727 330.455 90.6515 333.273 93.4091 335.182C96.197 337.061 99.7273 338 104 338ZM164.67 304V346H153.943V276.182H164.307V287.091H165.216C166.852 283.545 169.337 280.697 172.67 278.545C176.004 276.364 180.307 275.273 185.58 275.273C190.307 275.273 194.443 276.242 197.989 278.182C201.534 280.091 204.292 283 206.261 286.909C208.231 290.788 209.216 295.697 209.216 301.636V346H198.489V302.364C198.489 296.879 197.064 292.606 194.216 289.545C191.367 286.455 187.458 284.909 182.489 284.909C179.064 284.909 176.004 285.652 173.307 287.136C170.64 288.621 168.534 290.788 166.989 293.636C165.443 296.485 164.67 299.939 164.67 304ZM257 373.636C251.818 373.636 247.364 372.97 243.636 371.636C239.909 370.333 236.803 368.606 234.318 366.455C231.864 364.333 229.909 362.061 228.455 359.636L237 353.636C237.97 354.909 239.197 356.364 240.682 358C242.167 359.667 244.197 361.106 246.773 362.318C249.379 363.561 252.788 364.182 257 364.182C262.636 364.182 267.288 362.818 270.955 360.091C274.621 357.364 276.455 353.091 276.455 347.273V333.091H275.545C274.758 334.364 273.636 335.939 272.182 337.818C270.758 339.667 268.697 341.318 266 342.773C263.333 344.197 259.727 344.909 255.182 344.909C249.545 344.909 244.485 343.576 240 340.909C235.545 338.242 232.015 334.364 229.409 329.273C226.833 324.182 225.545 318 225.545 310.727C225.545 303.576 226.803 297.348 229.318 292.045C231.833 286.712 235.333 282.591 239.818 279.682C244.303 276.742 249.485 275.273 255.364 275.273C259.909 275.273 263.515 276.03 266.182 277.545C268.879 279.03 270.939 280.727 272.364 282.636C273.818 284.515 274.939 286.061 275.727 287.273H276.818V276.182H287.182V348C287.182 354 285.818 358.879 283.091 362.636C280.394 366.424 276.758 369.197 272.182 370.955C267.636 372.742 262.576 373.636 257 373.636ZM256.636 335.273C260.939 335.273 264.576 334.288 267.545 332.318C270.515 330.348 272.773 327.515 274.318 323.818C275.864 320.121 276.636 315.697 276.636 310.545C276.636 305.515 275.879 301.076 274.364 297.227C272.848 293.379 270.606 290.364 267.636 288.182C264.667 286 261 284.909 256.636 284.909C252.091 284.909 248.303 286.061 245.273 288.364C242.273 290.667 240.015 293.758 238.5 297.636C237.015 301.515 236.273 305.818 236.273 310.545C236.273 315.394 237.03 319.682 238.545 323.409C240.091 327.106 242.364 330.015 245.364 332.136C248.394 334.227 252.152 335.273 256.636 335.273ZM350.818 317.455V276.182H361.545V346H350.818V334.182H350.091C348.455 337.727 345.909 340.742 342.455 343.227C339 345.682 334.636 346.909 329.364 346.909C325 346.909 321.121 345.955 317.727 344.045C314.333 342.106 311.667 339.197 309.727 335.318C307.788 331.409 306.818 326.485 306.818 320.545V276.182H317.545V319.818C317.545 324.909 318.97 328.97 321.818 332C324.697 335.03 328.364 336.545 332.818 336.545C335.485 336.545 338.197 335.864 340.955 334.5C343.742 333.136 346.076 331.045 347.955 328.227C349.864 325.409 350.818 321.818 350.818 317.455ZM401.739 347.636C397.314 347.636 393.299 346.803 389.693 345.136C386.087 343.439 383.223 341 381.102 337.818C378.981 334.606 377.92 330.727 377.92 326.182C377.92 322.182 378.708 318.939 380.284 316.455C381.86 313.939 383.966 311.97 386.602 310.545C389.239 309.121 392.148 308.061 395.33 307.364C398.542 306.636 401.769 306.061 405.011 305.636C409.254 305.091 412.693 304.682 415.33 304.409C417.996 304.106 419.936 303.606 421.148 302.909C422.39 302.212 423.011 301 423.011 299.273V298.909C423.011 294.424 421.784 290.939 419.33 288.455C416.905 285.97 413.223 284.727 408.284 284.727C403.163 284.727 399.148 285.848 396.239 288.091C393.33 290.333 391.284 292.727 390.102 295.273L379.92 291.636C381.739 287.394 384.163 284.091 387.193 281.727C390.254 279.333 393.587 277.667 397.193 276.727C400.83 275.758 404.405 275.273 407.92 275.273C410.163 275.273 412.739 275.545 415.648 276.091C418.587 276.606 421.42 277.682 424.148 279.318C426.905 280.955 429.193 283.424 431.011 286.727C432.83 290.03 433.739 294.455 433.739 300V346H423.011V336.545H422.466C421.739 338.061 420.527 339.682 418.83 341.409C417.133 343.136 414.875 344.606 412.057 345.818C409.239 347.03 405.799 347.636 401.739 347.636ZM403.375 338C407.617 338 411.193 337.167 414.102 335.5C417.042 333.833 419.254 331.682 420.739 329.045C422.254 326.409 423.011 323.636 423.011 320.727V310.909C422.557 311.455 421.557 311.955 420.011 312.409C418.496 312.833 416.739 313.212 414.739 313.545C412.769 313.848 410.845 314.121 408.966 314.364C407.117 314.576 405.617 314.758 404.466 314.909C401.678 315.273 399.072 315.864 396.648 316.682C394.254 317.47 392.314 318.667 390.83 320.273C389.375 321.848 388.648 324 388.648 326.727C388.648 330.455 390.027 333.273 392.784 335.182C395.572 337.061 399.102 338 403.375 338ZM481.5 373.636C476.318 373.636 471.864 372.97 468.136 371.636C464.409 370.333 461.303 368.606 458.818 366.455C456.364 364.333 454.409 362.061 452.955 359.636L461.5 353.636C462.47 354.909 463.697 356.364 465.182 358C466.667 359.667 468.697 361.106 471.273 362.318C473.879 363.561 477.288 364.182 481.5 364.182C487.136 364.182 491.788 362.818 495.455 360.091C499.121 357.364 500.955 353.091 500.955 347.273V333.091H500.045C499.258 334.364 498.136 335.939 496.682 337.818C495.258 339.667 493.197 341.318 490.5 342.773C487.833 344.197 484.227 344.909 479.682 344.909C474.045 344.909 468.985 343.576 464.5 340.909C460.045 338.242 456.515 334.364 453.909 329.273C451.333 324.182 450.045 318 450.045 310.727C450.045 303.576 451.303 297.348 453.818 292.045C456.333 286.712 459.833 282.591 464.318 279.682C468.803 276.742 473.985 275.273 479.864 275.273C484.409 275.273 488.015 276.03 490.682 277.545C493.379 279.03 495.439 280.727 496.864 282.636C498.318 284.515 499.439 286.061 500.227 287.273H501.318V276.182H511.682V348C511.682 354 510.318 358.879 507.591 362.636C504.894 366.424 501.258 369.197 496.682 370.955C492.136 372.742 487.076 373.636 481.5 373.636ZM481.136 335.273C485.439 335.273 489.076 334.288 492.045 332.318C495.015 330.348 497.273 327.515 498.818 323.818C500.364 320.121 501.136 315.697 501.136 310.545C501.136 305.515 500.379 301.076 498.864 297.227C497.348 293.379 495.106 290.364 492.136 288.182C489.167 286 485.5 284.909 481.136 284.909C476.591 284.909 472.803 286.061 469.773 288.364C466.773 290.667 464.515 293.758 463 297.636C461.515 301.515 460.773 305.818 460.773 310.545C460.773 315.394 461.53 319.682 463.045 323.409C464.591 327.106 466.864 330.015 469.864 332.136C472.894 334.227 476.652 335.273 481.136 335.273ZM560.591 347.455C553.864 347.455 548.061 345.97 543.182 343C538.333 340 534.591 335.818 531.955 330.455C529.348 325.061 528.045 318.788 528.045 311.636C528.045 304.485 529.348 298.182 531.955 292.727C534.591 287.242 538.258 282.97 542.955 279.909C547.682 276.818 553.197 275.273 559.5 275.273C563.136 275.273 566.727 275.879 570.273 277.091C573.818 278.303 577.045 280.273 579.955 283C582.864 285.697 585.182 289.273 586.909 293.727C588.636 298.182 589.5 303.667 589.5 310.182V314.727H535.682V305.455H578.591C578.591 301.515 577.803 298 576.227 294.909C574.682 291.818 572.47 289.379 569.591 287.591C566.742 285.803 563.379 284.909 559.5 284.909C555.227 284.909 551.53 285.97 548.409 288.091C545.318 290.182 542.939 292.909 541.273 296.273C539.606 299.636 538.773 303.242 538.773 307.091V313.273C538.773 318.545 539.682 323.015 541.5 326.682C543.348 330.318 545.909 333.091 549.182 335C552.455 336.879 556.258 337.818 560.591 337.818C563.409 337.818 565.955 337.424 568.227 336.636C570.53 335.818 572.515 334.606 574.182 333C575.848 331.364 577.136 329.333 578.045 326.909L588.409 329.818C587.318 333.333 585.485 336.424 582.909 339.091C580.333 341.727 577.152 343.788 573.364 345.273C569.576 346.727 565.318 347.455 560.591 347.455Z" fill="black"/>
<defs>
<clipPath id="clip0_0_1">
<rect width="800" height="800" fill="white"/>
</clipPath>
</defs>
</svg>
